M48
;DRILL file {Pcbnew (2013-07-07 BZR 4022)-stable} date 26/08/2014 20:14:22
;FORMAT={-:-/ absolute / inch / decimal}
FMAT,2
INCH,TZ
T1C0.030
T2C0.032
%
G90
G05
M72
T1
X2.23Y-1.91
X2.23Y-2.11
T2
X1.8Y-1.77
X1.8Y-2.07
X2.Y-1.77
X2.Y-2.07
X2.35Y-1.46
X2.35Y-2.36
X2.45Y-1.46
X2.45Y-2.36
X2.55Y-1.46
X2.55Y-2.36
X2.65Y-1.46
X2.65Y-2.36
X2.75Y-1.46
X2.75Y-2.36
X2.85Y-1.46
X2.85Y-2.36
X2.95Y-1.46
X2.95Y-2.36
X3.05Y-1.46
X3.05Y-2.36
X3.225Y-1.58
X3.225Y-1.68
X3.225Y-1.78
X3.225Y-1.88
X3.225Y-1.98
X3.225Y-2.08
T0
M30
